<svg width="639" height="170" viewBox="0 0 639 170" fill="none" xmlns="http://www.w3.org/2000/svg">
    <g clipPath="url(#clip0_94_50455)">
        <path d="M289.064 48.5164L256.737 87.8951L224.41 48.5164H220.842V121.411H231.793V76.0317L256.737 104.321L281.653 76.0317V121.411H292.631V48.5164H289.064Z"
              fill="#F2F0EE"/>
        <path d="M318.377 121.135H353.995V110.295H329.217V88.9735H353.995V78.161H329.217V60.6286H353.995V49.7883H318.377V121.135Z"
              fill="#F2F0EE"/>
        <path d="M638.357 60.6286V49.7883H602.739V121.135H638.357V110.295H613.579V88.9735H638.357V78.161H613.579V60.6286H638.357Z"
              fill="#F2F0EE"/>
        <path d="M380.902 60.6286H403.329V121.135H414.169V60.6286H436.264V49.7883H380.902V60.6286Z" fill="#F2F0EE"/>
        <path d="M454.82 60.6286H477.275V121.135H488.115V60.6286H510.183V49.7883H454.82V60.6286Z" fill="#F2F0EE"/>
        <path d="M545.773 49.7883H534.933V121.135H580.257V110.295H545.773V49.7883Z" fill="#F2F0EE"/>
        <path d="M168.106 78.714C167.664 78.2992 167.083 78.078 166.475 78.1333L144.794 80.5945C142.72 50.6179 118.579 26.4487 88.6023 24.4576L91.0634 2.72183C91.1188 2.11345 90.8975 1.53273 90.4827 1.09027C90.0679 0.647809 89.4872 0.398926 88.9065 0.398926H79.919C79.3106 0.398926 78.7299 0.647809 78.3151 1.09027C77.9003 1.53273 77.7067 2.14111 77.7344 2.77714L80.1956 24.4023C50.219 26.4763 26.0497 50.6179 24.0587 80.5945L2.32291 78.1333C1.68687 78.0504 1.1338 78.2992 0.691341 78.714C0.248883 79.1288 0 79.7096 0 80.3179V89.3054C0 89.9138 0.248883 90.4945 0.691341 90.8816C1.1338 91.2964 1.71453 91.49 2.37821 91.4624L24.0034 89.0012C26.0774 118.978 50.219 143.147 80.1956 145.138L77.7344 166.874C77.6791 167.482 77.9003 168.063 78.3151 168.505C78.7299 168.948 79.3106 169.197 79.919 169.197H88.9065C89.5148 169.197 90.0956 168.948 90.4827 168.505C90.8975 168.063 91.0911 167.455 91.0634 166.819L88.6023 145.193C118.579 143.119 142.748 118.978 144.739 89.0012L166.475 91.4624C167.056 91.4624 167.664 91.2964 168.106 90.8816C168.549 90.4668 168.798 89.8861 168.798 89.3054V80.3179C168.798 79.7096 168.549 79.1288 168.106 78.714ZM88.0215 137.395L86.5559 118.038C86.4729 116.876 85.5604 116.046 84.3989 116.046C83.2375 116.046 82.3249 116.876 82.2419 118.038L80.7763 137.423C54.6436 135.653 33.5992 114.581 31.8293 88.4481L51.2145 86.9825C52.376 86.8995 53.2056 85.9869 53.2056 84.8255C53.2056 83.664 52.376 82.7515 51.2145 82.6685L31.8293 81.2029C33.5992 55.0702 54.6712 34.0258 80.8039 32.2559L82.2696 51.6411C82.3525 52.8026 83.2651 53.6322 84.4266 53.6322C85.588 53.6322 86.5006 52.8026 86.5835 51.6411L88.0492 32.2559C114.182 34.0258 135.226 55.0978 136.996 81.2305L117.611 82.6962C116.449 82.7791 115.62 83.6917 115.62 84.8531C115.62 86.0146 116.449 86.9272 117.611 87.0101L136.996 88.4758C135.226 114.608 114.154 135.653 88.0215 137.45V137.395Z"
              fill="#F2D5B1"/>
        <path d="M84.399 80.8987C82.242 80.8987 80.4722 82.6409 80.4722 84.8255C80.4722 87.0101 82.2143 88.7523 84.399 88.7523C86.5836 88.7523 88.3258 87.0101 88.3258 84.8255C88.3258 82.6409 86.5836 80.8987 84.399 80.8987Z"
              fill="#F2D5B1"/>
    </g>
    <defs>
        <clipPath id="clip0_94_50455">
            <rect width="638.357" height="168.798" fill="white" transform="translate(0 0.398926)"/>
        </clipPath>
    </defs>
</svg>
