<svg width="639" height="170" viewBox="0 0 639 170" fill="none" xmlns="http://www.w3.org/2000/svg">
    <g clipPath="url(#clip0_94_50453)">
        <path d="M289.064 48.7185L256.737 88.0973L224.41 48.7185H220.842V121.614H231.793V76.2339L256.737 104.524L281.653 76.2339V121.614H292.631V48.7185H289.064Z"
              fill="#212121"/>
        <path d="M318.377 121.337H353.995V110.497H329.217V89.1756H353.995V78.3631H329.217V60.8306H353.995V49.9904H318.377V121.337Z"
              fill="#212121"/>
        <path d="M638.357 60.8306V49.9904H602.739V121.337H638.357V110.497H613.579V89.1756H638.357V78.3631H613.579V60.8306H638.357Z"
              fill="#212121"/>
        <path d="M380.902 60.8306H403.329V121.337H414.169V60.8306H436.264V49.9904H380.902V60.8306Z" fill="#212121"/>
        <path d="M454.82 60.8306H477.275V121.337H488.115V60.8306H510.183V49.9904H454.82V60.8306Z" fill="#212121"/>
        <path d="M545.773 49.9904H534.933V121.337H580.257V110.497H545.773V49.9904Z" fill="#212121"/>
        <path d="M168.106 78.9162C167.664 78.5014 167.083 78.2802 166.475 78.3355L144.794 80.7966C142.72 50.8201 118.579 26.6508 88.6023 24.6597L91.0634 2.92398C91.1188 2.3156 90.8975 1.73487 90.4827 1.29242C90.0679 0.849957 89.4872 0.601074 88.9065 0.601074H79.919C79.3106 0.601074 78.7299 0.849957 78.3151 1.29242C77.9003 1.73487 77.7067 2.34325 77.7344 2.97929L80.1956 24.6044C50.219 26.6785 26.0497 50.8201 24.0587 80.7966L2.32291 78.3355C1.68687 78.2525 1.1338 78.5014 0.691341 78.9162C0.248883 79.331 0 79.9117 0 80.5201V89.5075C0 90.1159 0.248883 90.6966 0.691341 91.0838C1.1338 91.4986 1.71453 91.6922 2.37821 91.6645L24.0034 89.2033C26.0774 119.18 50.219 143.349 80.1956 145.34L77.7344 167.076C77.6791 167.684 77.9003 168.265 78.3151 168.708C78.7299 169.15 79.3106 169.399 79.919 169.399H88.9065C89.5148 169.399 90.0956 169.15 90.4827 168.708C90.8975 168.265 91.0911 167.657 91.0634 167.021L88.6023 145.396C118.579 143.322 142.748 119.18 144.739 89.2033L166.475 91.6645C167.056 91.6645 167.664 91.4986 168.106 91.0838C168.549 90.669 168.798 90.0883 168.798 89.5075V80.5201C168.798 79.9117 168.549 79.331 168.106 78.9162ZM88.0215 137.597L86.5559 118.24C86.4729 117.078 85.5604 116.249 84.3989 116.249C83.2375 116.249 82.3249 117.078 82.2419 118.24L80.7763 137.625C54.6436 135.855 33.5992 114.783 31.8293 88.6503L51.2145 87.1846C52.376 87.1017 53.2056 86.1891 53.2056 85.0276C53.2056 83.8662 52.376 82.9536 51.2145 82.8707L31.8293 81.405C33.5992 55.2723 54.6712 34.2279 80.8039 32.4581L82.2696 51.8433C82.3525 53.0047 83.2651 53.8343 84.4266 53.8343C85.588 53.8343 86.5006 53.0047 86.5835 51.8433L88.0492 32.4581C114.182 34.2279 135.226 55.3 136.996 81.4327L117.611 82.8983C116.449 82.9813 115.62 83.8938 115.62 85.0553C115.62 86.2168 116.449 87.1293 117.611 87.2123L136.996 88.6779C135.226 114.811 114.154 135.855 88.0215 137.653V137.597Z"
              fill="#B79060"/>
        <path d="M84.399 81.1008C82.242 81.1008 80.4722 82.8429 80.4722 85.0276C80.4722 87.2122 82.2143 88.9544 84.399 88.9544C86.5836 88.9544 88.3258 87.2122 88.3258 85.0276C88.3258 82.8429 86.5836 81.1008 84.399 81.1008Z"
              fill="#212121"/>
    </g>
    <defs>
        <clipPath id="clip0_94_50453">
            <rect width="638.357" height="168.798" fill="white" transform="translate(0 0.601074)"/>
        </clipPath>
    </defs>
</svg>
