<svg width="21" height="20" viewBox="0 0 21 20" fill="none" xmlns="http://www.w3.org/2000/svg">
<g id="head-snowflake-outline">
<path id="Vector" d="M11.3329 2.49998C14.5662 2.49998 17.1662 5.11665 17.1662 8.33331C17.1662 10.6666 15.8079 12.6583 13.8329 13.5916V17.5H7.99953V15H7.16619C6.24119 15 5.49952 14.2583 5.49952 13.3333V10.8333H4.24952C3.89952 10.8333 3.69952 10.4166 3.89952 10.1583L5.49952 8.04998C5.65786 4.95831 8.19119 2.49998 11.3329 2.49998ZM11.3329 0.833313C7.50786 0.833313 4.34119 3.68331 3.88286 7.41665L2.58286 9.16665H2.55786L2.54119 9.19165C2.08286 9.82498 2.02452 10.6583 2.38286 11.35C2.68286 11.925 3.21619 12.325 3.83286 12.45V13.3333C3.83286 14.875 4.89952 16.1833 6.33286 16.5583V19.1666H15.4995V14.5833C17.5829 13.1916 18.8329 10.8833 18.8329 8.33331C18.8329 4.19165 15.4662 0.833313 11.3329 0.833313ZM14.9412 7.74998L13.3079 8.17498L14.5079 9.39165C14.7995 9.67498 14.7995 10.1583 14.5079 10.45C14.2162 10.7416 13.7329 10.7416 13.4495 10.45L12.2412 9.24998L11.8079 10.8833C11.7079 11.2916 11.2995 11.5166 10.9162 11.4166C10.4995 11.3083 10.2662 10.9 10.3662 10.4916L10.8079 8.85831L9.17452 9.29998C8.76619 9.39998 8.35786 9.16665 8.24953 8.74998C8.14953 8.37498 8.38286 7.95831 8.78286 7.85831L10.4162 7.42498L9.21619 6.21665C8.92453 5.93331 8.92453 5.45831 9.21619 5.15831C9.50786 4.86665 9.99119 4.86665 10.2745 5.15831L11.4912 6.35831L11.9162 4.72498C12.0162 4.31665 12.4329 4.08331 12.8245 4.19165C13.2329 4.29998 13.4662 4.70831 13.3579 5.10831L12.9162 6.74998L14.5579 6.30831C14.9579 6.19998 15.3662 6.43331 15.4745 6.84165C15.5829 7.23331 15.3495 7.64998 14.9412 7.74998Z" fill="#3C362F"/>
</g>
</svg>
