<svg width="32" height="33" viewBox="0 0 32 33" fill="none" xmlns="http://www.w3.org/2000/svg">
<g id="lock" opacity="0.7">
<path id="Vector" d="M16 23.3246C16.702 23.3246 17.3753 23.0458 17.8717 22.5494C18.3681 22.053 18.6469 21.3797 18.6469 20.6777C18.6469 19.2087 17.4558 18.0308 16 18.0308C15.298 18.0308 14.6247 18.3096 14.1283 18.806C13.6319 19.3024 13.3531 19.9757 13.3531 20.6777C13.3531 21.3797 13.6319 22.053 14.1283 22.5494C14.6247 23.0458 15.298 23.3246 16 23.3246ZM23.9408 11.4134C24.6428 11.4134 25.3161 11.6923 25.8125 12.1887C26.3089 12.6851 26.5877 13.3584 26.5877 14.0604V27.295C26.5877 27.9971 26.3089 28.6703 25.8125 29.1667C25.3161 29.6631 24.6428 29.942 23.9408 29.942H8.0592C7.35719 29.942 6.68393 29.6631 6.18753 29.1667C5.69113 28.6703 5.41226 27.9971 5.41226 27.295V14.0604C5.41226 12.5913 6.60338 11.4134 8.0592 11.4134H9.38266V8.7665C9.38266 7.01148 10.0798 5.32833 11.3208 4.08734C12.5618 2.84635 14.245 2.14917 16 2.14917C16.869 2.14917 17.7295 2.32033 18.5323 2.65288C19.3352 2.98544 20.0647 3.47287 20.6792 4.08734C21.2936 4.70182 21.7811 5.43131 22.1136 6.23416C22.4462 7.03701 22.6173 7.8975 22.6173 8.7665V11.4134H23.9408ZM16 4.7961C14.947 4.7961 13.9371 5.21441 13.1925 5.95901C12.4479 6.7036 12.0296 7.71349 12.0296 8.7665V11.4134H19.9704V8.7665C19.9704 7.71349 19.5521 6.7036 18.8075 5.95901C18.0629 5.21441 17.053 4.7961 16 4.7961Z" fill="#FEFDFB"/>
</g>
</svg>
