<svg width="834" height="275" viewBox="0 0 834 275" fill="none" xmlns="http://www.w3.org/2000/svg">
<rect width="833.698" height="275" fill="#3C362F"/>
<g clip-path="url(#clip0_87_641)">
<path d="M380.965 94.0873L342.444 141.206L303.922 94.0873H299.671V181.31H312.721V127.011L342.444 160.861L372.134 127.011V181.31H385.216V94.0873H380.965Z" fill="#F2F0EE"/>
<path d="M415.895 180.979H458.337V168.008H428.812V142.496H458.337V129.559H428.812V108.58H458.337V95.6092H415.895V180.979Z" fill="#F2F0EE"/>
<path d="M797.187 108.58V95.6092H754.744V180.979H797.187V168.008H767.661V142.496H797.187V129.559H767.661V108.58H797.187Z" fill="#F2F0EE"/>
<path d="M490.401 108.58H517.125V180.979H530.043V108.58H556.372V95.6092H490.401V108.58Z" fill="#F2F0EE"/>
<path d="M578.482 108.58H605.24V180.979H618.157V108.58H644.453V95.6092H578.482V108.58Z" fill="#F2F0EE"/>
<path d="M686.863 95.6092H673.945V180.979H727.954V168.008H686.863V95.6092Z" fill="#F2F0EE"/>
<path d="M236.83 130.22C236.303 129.724 235.611 129.459 234.886 129.526L209.051 132.47C206.58 96.602 177.813 67.6822 142.092 65.2998L145.025 39.2918C145.091 38.5638 144.827 37.869 144.333 37.3396C143.839 36.8101 143.147 36.5123 142.455 36.5123H131.745C131.02 36.5123 130.328 36.8101 129.834 37.3396C129.34 37.869 129.109 38.5969 129.142 39.358L132.075 65.2336C96.3543 67.7153 67.5539 96.602 65.1813 132.47L39.2807 129.526C38.5228 129.426 37.8637 129.724 37.3365 130.22C36.8093 130.717 36.5127 131.412 36.5127 132.14V142.894C36.5127 143.621 36.8093 144.316 37.3365 144.78C37.8637 145.276 38.5557 145.508 39.3466 145.474L65.1154 142.53C67.5868 178.398 96.3543 207.318 132.075 209.7L129.142 235.708C129.076 236.436 129.34 237.131 129.834 237.66C130.328 238.19 131.02 238.488 131.745 238.488H142.455C143.18 238.488 143.872 238.19 144.333 237.66C144.827 237.131 145.058 236.403 145.025 235.642L142.092 209.766C177.813 207.285 206.613 178.398 208.986 142.53L234.886 145.474C235.578 145.474 236.303 145.276 236.83 144.78C237.358 144.283 237.654 143.588 237.654 142.894V132.14C237.654 131.412 237.358 130.717 236.83 130.22ZM141.4 200.435L139.654 177.273C139.555 175.883 138.467 174.891 137.083 174.891C135.699 174.891 134.612 175.883 134.513 177.273L132.767 200.468C101.627 198.351 76.5499 173.137 74.4409 141.868L97.5406 140.114C98.9245 140.015 99.9131 138.923 99.9131 137.533C99.9131 136.143 98.9245 135.051 97.5406 134.952L74.4409 133.198C76.5499 101.929 101.66 76.7486 132.8 74.6309L134.546 97.8263C134.645 99.216 135.732 100.209 137.116 100.209C138.5 100.209 139.588 99.216 139.687 97.8263L141.433 74.6309C172.573 76.7486 197.65 101.962 199.759 133.232L176.659 134.985C175.275 135.085 174.287 136.176 174.287 137.566C174.287 138.956 175.275 140.048 176.659 140.147L199.759 141.901C197.65 173.17 172.54 198.351 141.4 200.501V200.435Z" fill="#F2D5B1"/>
<path d="M137.084 132.834C134.514 132.834 132.405 134.919 132.405 137.533C132.405 140.147 134.481 142.232 137.084 142.232C139.687 142.232 141.763 140.147 141.763 137.533C141.763 134.919 139.687 132.834 137.084 132.834Z" fill="#FEFDFB"/>
</g>
<defs>
<clipPath id="clip0_87_641">
<rect width="760.673" height="201.975" fill="white" transform="translate(36.5127 36.5123)"/>
</clipPath>
</defs>
</svg>
