<svg width="25" height="15" viewBox="0 0 25 15" fill="none" xmlns="http://www.w3.org/2000/svg">
<path fill-rule="evenodd" clip-rule="evenodd" d="M5.78552 2.46836C5.19023 1.43728 3.86986 1.0835 2.83883 1.67877L0.970703 2.75732L6.75909 12.7831C7.35439 13.8142 8.67475 14.168 9.70579 13.5727L11.5739 12.4942L5.78552 2.46836Z" fill="#3C362F"/>
<path fill-rule="evenodd" clip-rule="evenodd" d="M12.2025 2.4686C11.6072 1.43752 10.2869 1.08374 9.25582 1.67901L7.3877 2.75757L13.1761 12.7834C13.7714 13.8144 15.0917 14.1682 16.1228 13.573L17.9909 12.4944L12.2025 2.4686Z" fill="#3C362F"/>
<path fill-rule="evenodd" clip-rule="evenodd" d="M18.6244 2.46799C18.0291 1.43694 16.7087 1.08316 15.6777 1.67844L13.8096 2.75702L19.598 12.7828C20.1933 13.8138 21.5136 14.1676 22.5447 13.5723C22.5447 13.5723 24.4315 12.5375 23.3006 10.5674C22.1696 8.59725 18.6244 2.46799 18.6244 2.46799ZM21.457 13.2096C20.6388 13.2026 19.9769 12.5359 19.9769 11.7159C19.9769 10.8911 20.6465 10.2215 21.4713 10.2215C21.9775 10.2215 22.4252 10.4737 22.6948 10.8598L22.7389 10.9361C23.1572 11.6608 22.9086 12.5888 22.1839 13.0072C21.9545 13.1396 21.7047 13.2052 21.457 13.2096Z" fill="#3C362F"/>
</svg>
