<svg width="180" height="32" viewBox="0 0 180 32" fill="none" xmlns="http://www.w3.org/2000/svg">
<g id="Group">
<path id="Vector" d="M29.5727 0.425415L15.6957 17.3296L1.81858 0.425415H0.287231V31.7171H4.98811V12.237L15.6957 24.3809L26.3913 12.237V31.7171H31.1041V0.425415H29.5727Z" fill="#F2F0EE"/>
<path id="Vector_2" d="M42.1559 31.5984H57.4456V26.945H46.8093V17.7925H57.4456V13.151H46.8093V5.62483H57.4456V0.971436H42.1559V31.5984Z" fill="#F2F0EE"/>
<path id="Vector_3" d="M179.514 5.62483V0.971436H164.224V31.5984H179.514V26.945H168.878V17.7925H179.514V13.151H168.878V5.62483H179.514Z" fill="#F2F0EE"/>
<path id="Vector_4" d="M68.9961 5.62483H78.6234V31.5984H83.2768V5.62483H92.7616V0.971436H68.9961V5.62483Z" fill="#F2F0EE"/>
<path id="Vector_5" d="M100.727 5.62483H110.366V31.5984H115.02V5.62483H124.493V0.971436H100.727V5.62483Z" fill="#F2F0EE"/>
<path id="Vector_6" d="M139.77 0.971436H135.117V31.5984H154.573V26.945H139.77V0.971436Z" fill="#F2F0EE"/>
</g>
</svg>
