<svg width="35" height="35" viewBox="0 0 35 35" fill="none" xmlns="http://www.w3.org/2000/svg">
<path d="M33.9803 16.2911C33.8923 16.2087 33.7769 16.1647 33.6561 16.1757L29.3479 16.6648C28.9358 10.7081 24.1386 5.9054 18.1819 5.50975L18.671 1.19062C18.682 1.06973 18.638 0.954333 18.5556 0.866411C18.4732 0.77849 18.3578 0.729034 18.2424 0.729034H16.4565C16.3356 0.729034 16.2202 0.77849 16.1377 0.866411C16.0553 0.954333 16.0169 1.07522 16.0223 1.20161L16.5114 5.49876C10.5547 5.91089 5.75205 10.7081 5.3564 16.6648L1.03727 16.1757C0.910883 16.1592 0.800982 16.2087 0.713061 16.2911C0.625139 16.3735 0.575684 16.4889 0.575684 16.6098V18.3957C0.575684 18.5166 0.625139 18.632 0.713061 18.7089C0.800982 18.7914 0.916378 18.8298 1.04826 18.8243L5.34541 18.3353C5.75754 24.2919 10.5547 29.0946 16.5114 29.4903L16.0223 33.8094C16.0114 33.9303 16.0553 34.0457 16.1377 34.1336C16.2202 34.2215 16.3356 34.271 16.4565 34.271H18.2424C18.3633 34.271 18.4786 34.2215 18.5556 34.1336C18.638 34.0457 18.6765 33.9248 18.671 33.7984L18.1819 29.5013C24.1386 29.0891 28.9413 24.2919 29.3369 18.3353L33.6561 18.8243C33.7714 18.8243 33.8923 18.7914 33.9803 18.7089C34.0682 18.6265 34.1176 18.5111 34.1176 18.3957V16.6098C34.1176 16.4889 34.0682 16.3735 33.9803 16.2911ZM18.0665 27.9516L17.7753 24.1051C17.7588 23.8743 17.5775 23.7094 17.3467 23.7094C17.1159 23.7094 16.9345 23.8743 16.918 24.1051L16.6268 27.9571C11.434 27.6055 7.2522 23.4182 6.90052 18.2254L10.7526 17.9341C10.9834 17.9176 11.1482 17.7363 11.1482 17.5055C11.1482 17.2747 10.9834 17.0934 10.7526 17.0769L6.90052 16.7857C7.2522 11.5928 11.4395 7.41105 16.6323 7.05936L16.9235 10.9114C16.94 11.1422 17.1214 11.3071 17.3522 11.3071C17.5829 11.3071 17.7643 11.1422 17.7808 10.9114L18.072 7.05936C23.2649 7.41105 27.4466 11.5983 27.7983 16.7911L23.9462 17.0824C23.7155 17.0989 23.5506 17.2802 23.5506 17.511C23.5506 17.7418 23.7155 17.9231 23.9462 17.9396L27.7983 18.2309C27.4466 23.4237 23.2594 27.6055 18.0665 27.9626V27.9516Z" fill="#B89261"/>
<path d="M17.3467 16.7252C16.9181 16.7252 16.5664 17.0714 16.5664 17.5055C16.5664 17.9396 16.9126 18.2858 17.3467 18.2858C17.7808 18.2858 18.127 17.9396 18.127 17.5055C18.127 17.0714 17.7808 16.7252 17.3467 16.7252Z" fill="#312E2B"/>
</svg>
