<svg width="84" height="15" viewBox="0 0 84 15" fill="none" xmlns="http://www.w3.org/2000/svg">
<g id="Group">
<path id="Vector" d="M14.0158 0.290482L7.59208 8.11547L1.16834 0.290482H0.459473V14.7755H2.63552V5.75808L7.59208 11.3795L12.5431 5.75808V14.7755H14.7247V0.290482H14.0158Z" fill="#312E2B"/>
<path id="Vector_2" d="M19.8406 14.7205H26.9182V12.5664H21.9946V8.32974H26.9182V6.18116H21.9946V2.69728H26.9182V0.543213H19.8406V14.7205Z" fill="#312E2B"/>
<path id="Vector_3" d="M83.4243 2.69728V0.543213H76.3467V14.7205H83.4243V12.5664H78.5007V8.32974H83.4243V6.18116H78.5007V2.69728H83.4243Z" fill="#312E2B"/>
<path id="Vector_4" d="M32.2651 2.69728H36.7216V14.7205H38.8757V2.69728H43.2663V0.543213H32.2651V2.69728Z" fill="#312E2B"/>
<path id="Vector_5" d="M46.9534 2.69728H51.4154V14.7205H53.5694V2.69728H57.9545V0.543213H46.9534V2.69728Z" fill="#312E2B"/>
<path id="Vector_6" d="M65.0266 0.543213H62.8726V14.7205H71.879V12.5664H65.0266V0.543213Z" fill="#312E2B"/>
</g>
</svg>
