<svg width="275" height="74" viewBox="0 0 275 74" fill="none" xmlns="http://www.w3.org/2000/svg">
<g clip-path="url(#clip0_10_26530)">
<path d="M124.573 21.4254L110.696 38.3296L96.8186 21.4254H95.2872V52.7171H99.9881V33.237L110.696 45.3809L121.391 33.237V52.7171H126.104V21.4254H124.573Z" fill="#F2F0EE"/>
<path d="M137.156 52.5984H152.446V47.945H141.809V38.7925H152.446V34.151H141.809V26.6248H152.446V21.9714H137.156V52.5984Z" fill="#F2F0EE"/>
<path d="M274.514 26.6248V21.9714H259.224V52.5984H274.514V47.945H263.878V38.7925H274.514V34.151H263.878V26.6248H274.514Z" fill="#F2F0EE"/>
<path d="M163.996 26.6248H173.623V52.5984H178.277V26.6248H187.762V21.9714H163.996V26.6248Z" fill="#F2F0EE"/>
<path d="M195.727 26.6248H205.366V52.5984H210.02V26.6248H219.493V21.9714H195.727V26.6248Z" fill="#F2F0EE"/>
<path d="M234.77 21.9714H230.117V52.5984H249.573V47.945H234.77V21.9714Z" fill="#F2F0EE"/>
<path d="M72.6493 34.3884C72.4593 34.2103 72.2101 34.1154 71.9489 34.1391L62.6421 35.1956C61.7518 22.3276 51.3885 11.9524 38.5204 11.0977L39.577 1.76718C39.6007 1.50602 39.5057 1.25673 39.3277 1.06679C39.1496 0.876858 38.9003 0.77002 38.651 0.77002H34.793C34.5318 0.77002 34.2825 0.876858 34.1045 1.06679C33.9264 1.25673 33.8433 1.51789 33.8552 1.79092L34.9117 11.074C22.0436 11.9643 11.6685 22.3276 10.8138 35.1956L1.48324 34.1391C1.21021 34.1035 0.972791 34.2103 0.782856 34.3884C0.592922 34.5665 0.486084 34.8158 0.486084 35.0769V38.935C0.486084 39.1961 0.592922 39.4454 0.782856 39.6116C0.972791 39.7897 1.22208 39.8728 1.50698 39.8609L10.79 38.8044C11.6803 51.6724 22.0436 62.0476 34.9117 62.9023L33.8552 72.2328C33.8314 72.494 33.9264 72.7433 34.1045 72.9332C34.2825 73.1232 34.5318 73.23 34.793 73.23H38.651C38.9122 73.23 39.1615 73.1232 39.3277 72.9332C39.5057 72.7433 39.5888 72.4821 39.577 72.2091L38.5204 62.926C51.3885 62.0357 61.7637 51.6724 62.6184 38.8044L71.9489 39.8609C72.1982 39.8609 72.4593 39.7897 72.6493 39.6116C72.8392 39.4335 72.9461 39.1843 72.9461 38.935V35.0769C72.9461 34.8158 72.8392 34.5665 72.6493 34.3884ZM38.2712 59.5785L37.642 51.2688C37.6064 50.7702 37.2146 50.4141 36.7161 50.4141C36.2175 50.4141 35.8258 50.7702 35.7901 51.2688L35.161 59.5903C23.943 58.8306 14.9092 49.785 14.1495 38.567L22.471 37.9378C22.9696 37.9022 23.3257 37.5105 23.3257 37.0119C23.3257 36.5133 22.9696 36.1216 22.471 36.0859L14.1495 35.4568C14.9092 24.2388 23.9549 15.205 35.1729 14.4453L35.802 22.7668C35.8376 23.2654 36.2294 23.6215 36.7279 23.6215C37.2265 23.6215 37.6183 23.2654 37.6539 22.7668L38.283 14.4453C49.501 15.205 58.5348 24.2507 59.2945 35.4687L50.973 36.0978C50.4744 36.1334 50.1183 36.5252 50.1183 37.0237C50.1183 37.5223 50.4744 37.9141 50.973 37.9497L59.2945 38.5788C58.5348 49.7968 49.4892 58.8306 38.2712 59.6022V59.5785Z" fill="#F2D5B1"/>
<path d="M36.7162 35.3262C35.7903 35.3262 35.0305 36.074 35.0305 37.0118C35.0305 37.9496 35.7784 38.6975 36.7162 38.6975C37.654 38.6975 38.4019 37.9496 38.4019 37.0118C38.4019 36.074 37.654 35.3262 36.7162 35.3262Z" fill="#FEFDFB"/>
</g>
<defs>
<clipPath id="clip0_10_26530">
<rect width="274.028" height="72.46" fill="white" transform="translate(0.486084 0.77002)"/>
</clipPath>
</defs>
</svg>
