<svg width="128" height="34" viewBox="0 0 128 34" fill="none" xmlns="http://www.w3.org/2000/svg">
<g clip-path="url(#clip0_842_563)">
<path d="M58.0159 9.79048L51.5922 17.6155L45.1685 9.79048H44.4596V24.2755H46.6356V15.2581L51.5922 20.8795L56.5433 15.2581V24.2755H58.7248V9.79048H58.0159Z" fill="#312E2B"/>
<path d="M63.8407 24.2205H70.9184V22.0664H65.9948V17.8297H70.9184V15.6812H65.9948V12.1973H70.9184V10.0432H63.8407V24.2205Z" fill="#312E2B"/>
<path d="M127.424 12.1973V10.0432H120.347V24.2205H127.424V22.0664H122.501V17.8297H127.424V15.6812H122.501V12.1973H127.424Z" fill="#312E2B"/>
<path d="M76.2651 12.1973H80.7216V24.2205H82.8757V12.1973H87.2663V10.0432H76.2651V12.1973Z" fill="#312E2B"/>
<path d="M90.9535 12.1973H95.4155V24.2205H97.5696V12.1973H101.955V10.0432H90.9535V12.1973Z" fill="#312E2B"/>
<path d="M109.027 10.0432H106.873V24.2205H115.879V22.0664H109.027V10.0432Z" fill="#312E2B"/>
<path d="M33.9804 15.7911C33.8925 15.7087 33.7771 15.6647 33.6562 15.6757L29.348 16.1648C28.9359 10.2081 24.1387 5.4054 18.182 5.00975L18.6711 0.690621C18.6821 0.569729 18.6381 0.454333 18.5557 0.366411C18.4733 0.27849 18.3579 0.229034 18.2425 0.229034H16.4566C16.3357 0.229034 16.2203 0.27849 16.1379 0.366411C16.0554 0.454333 16.017 0.575224 16.0225 0.701611L16.5115 4.99876C10.5549 5.41089 5.75217 10.2081 5.35652 16.1648L1.03739 15.6757C0.911005 15.6592 0.801104 15.7087 0.713183 15.7911C0.625261 15.8735 0.575806 15.9889 0.575806 16.1098V17.8957C0.575806 18.0166 0.625261 18.132 0.713183 18.2089C0.801104 18.2914 0.9165 18.3298 1.04838 18.3243L5.34553 17.8353C5.75766 23.7919 10.5549 28.5946 16.5115 28.9903L16.0225 33.3094C16.0115 33.4303 16.0554 33.5457 16.1379 33.6336C16.2203 33.7215 16.3357 33.771 16.4566 33.771H18.2425C18.3634 33.771 18.4788 33.7215 18.5557 33.6336C18.6381 33.5457 18.6766 33.4248 18.6711 33.2984L18.182 29.0013C24.1387 28.5891 28.9414 23.7919 29.337 17.8353L33.6562 18.3243C33.7716 18.3243 33.8925 18.2914 33.9804 18.2089C34.0683 18.1265 34.1178 18.0111 34.1178 17.8957V16.1098C34.1178 15.9889 34.0683 15.8735 33.9804 15.7911ZM18.0666 27.4516L17.7754 23.6051C17.7589 23.3743 17.5776 23.2094 17.3468 23.2094C17.116 23.2094 16.9347 23.3743 16.9182 23.6051L16.6269 27.4571C11.4341 27.1055 7.25232 22.9182 6.90064 17.7254L10.7527 17.4341C10.9835 17.4176 11.1483 17.2363 11.1483 17.0055C11.1483 16.7747 10.9835 16.5934 10.7527 16.5769L6.90064 16.2857C7.25232 11.0928 11.4396 6.91105 16.6324 6.55936L16.9237 10.4114C16.9401 10.6422 17.1215 10.8071 17.3523 10.8071C17.5831 10.8071 17.7644 10.6422 17.7809 10.4114L18.0721 6.55936C23.265 6.91105 27.4467 11.0983 27.7984 16.2911L23.9464 16.5824C23.7156 16.5989 23.5507 16.7802 23.5507 17.011C23.5507 17.2418 23.7156 17.4231 23.9464 17.4396L27.7984 17.7309C27.4467 22.9237 23.2595 27.1055 18.0666 27.4626V27.4516Z" fill="#B89261"/>
<path d="M17.3468 16.2252C16.9182 16.2252 16.5665 16.5714 16.5665 17.0055C16.5665 17.4396 16.9127 17.7858 17.3468 17.7858C17.7809 17.7858 18.1271 17.4396 18.1271 17.0055C18.1271 16.5714 17.7809 16.2252 17.3468 16.2252Z" fill="#312E2B"/>
</g>
<defs>
<clipPath id="clip0_842_563">
<rect width="126.848" height="33.542" fill="white" transform="translate(0.575806 0.229034)"/>
</clipPath>
</defs>
</svg>
